<?xml version="1.0" encoding="utf-8"?>
<!-- Generator: Adobe Illustrator 26.3.1, SVG Export Plug-In . SVG Version: 6.00 Build 0)  -->
<svg version="1.1" id="Capa_1" xmlns="http://www.w3.org/2000/svg" xmlns:xlink="http://www.w3.org/1999/xlink" x="0px" y="0px"
	 viewBox="0 0 61.6 34.8" style="enable-background:new 0 0 61.6 34.8;" xml:space="preserve">
<style type="text/css">
	.st0{fill:#B5C7E8;}
	.st1{fill:#8FAAD9;}
	.st2{fill:#4771B6;}
</style>
<g>
	<path class="st0" d="M23.9,28.3l-11.2,0c0,0,0,0,0,0l-6.7,0c-0.6,0-1.1-0.5-1.1-1V10.1h6.7h12.3V9.4H5V7.5c0-0.6,0.5-1,1.1-1h17.9
		V5.8H6c-1,0-1.8,0.8-1.8,1.8v19.7C4.3,28.2,5,29,6,29h17.9V28.3z"/>
	<path class="st1" d="M9.9,7.3C9.5,7.3,9.2,7.6,9.2,8c0,0.4,0.3,0.7,0.7,0.7c0.4,0,0.7-0.3,0.7-0.7C10.6,7.6,10.3,7.3,9.9,7.3"/>
	<path class="st0" d="M6.5,7.3C6.1,7.3,5.8,7.6,5.8,8c0,0.4,0.3,0.7,0.7,0.7c0.4,0,0.7-0.3,0.7-0.7C7.2,7.6,6.9,7.3,6.5,7.3"/>
	<path class="st1" d="M11.3,28.3l-1.9,0c-0.6,0-1.1-0.5-1.1-1.1V10.1h2.6V9.4H8.3V7.5c0-0.6,0.5-1,1.1-1h1.9
		c0.3-0.4,0.8-0.7,1.4-0.7H9.3c-1,0-1.8,0.8-1.8,1.8v19.7c0,1,0.8,1.8,1.8,1.8h42.9c0,0,0,0,0,0H12.7C12.1,29,11.6,28.7,11.3,28.3z"
		/>
	<path class="st2" d="M13.3,7.3c-0.4,0-0.7,0.3-0.7,0.7c0,0.4,0.3,0.7,0.7,0.7C13.7,8.7,14,8.3,14,8C14,7.6,13.7,7.3,13.3,7.3"/>
	<path class="st2" d="M15.6,7.3c-0.4,0-0.7,0.3-0.7,0.7c0,0.4,0.3,0.7,0.7,0.7c0.4,0,0.7-0.3,0.7-0.7C16.3,7.6,16,7.3,15.6,7.3"/>
	<path class="st2" d="M17.9,7.3c-0.4,0-0.7,0.3-0.7,0.7c0,0.4,0.3,0.7,0.7,0.7s0.7-0.3,0.7-0.7C18.6,7.6,18.3,7.3,17.9,7.3"/>
	<path class="st2" d="M50.2,25.3h0.3c0.1,0,0.2-0.1,0.3-0.2l3.6-8.3c0.1-0.1,0.1-0.2,0.1-0.3c0-0.1,0-0.1-0.1-0.2
		c0,0-0.1-0.1-0.2-0.1h-0.3c-0.1,0-0.2,0.1-0.3,0.2l-2.2,5l-2.1-5c-0.1-0.1-0.2-0.2-0.3-0.2h-0.3c-0.1,0-0.1,0-0.2,0.1
		c0,0.1-0.1,0.1-0.1,0.2c0,0,0,0.1,0.1,0.3l2.4,5.7l-1,2.3C50,24.9,50,25,50,25c0,0.1,0,0.1,0.1,0.2C50.1,25.3,50.2,25.3,50.2,25.3
		 M44.2,23c0.5,0,0.9-0.1,1.2-0.3c0.3-0.2,0.6-0.4,0.9-0.7v0.6c0,0.1,0,0.2,0.1,0.2c0.1,0,0.1,0.1,0.2,0.1h0.2c0.1,0,0.2,0,0.2-0.1
		c0.1-0.1,0.1-0.1,0.1-0.2v-6c0-0.1,0-0.2-0.1-0.2c0,0-0.1-0.1-0.2-0.1h-0.2c-0.1,0-0.2,0-0.2,0.1c0,0.1-0.1,0.1-0.1,0.2v3.5
		c0,0.7-0.2,1.2-0.5,1.6c-0.4,0.4-0.8,0.6-1.4,0.6c-1.3,0-1.9-0.7-1.9-2.2v-3.5c0-0.1,0-0.2-0.1-0.2c0,0-0.1-0.1-0.2-0.1H42
		c-0.1,0-0.2,0-0.2,0.1c0,0.1-0.1,0.1-0.1,0.2v3.6c0,0.8,0.2,1.5,0.6,2C42.7,22.8,43.4,23,44.2,23 M39.1,22.9h0.6
		c0.1,0,0.2,0,0.2-0.1c0.1-0.1,0.1-0.1,0.1-0.2V22c0-0.1,0-0.2-0.1-0.2c-0.1-0.1-0.1-0.1-0.2-0.1h-0.6c-0.1,0-0.2,0-0.2,0.1
		c-0.1,0.1-0.1,0.1-0.1,0.2v0.6c0,0.1,0,0.2,0.1,0.2C38.9,22.9,39,22.9,39.1,22.9 M33.7,23c0.8,0,1.4-0.1,2-0.4
		c0.6-0.3,1-0.6,1.3-1.1c0.3-0.5,0.4-1,0.4-1.6c0-0.6-0.1-1.1-0.4-1.5c-0.3-0.4-0.7-0.8-1.1-1c-0.5-0.2-1-0.4-1.5-0.4
		c-0.4,0-0.7,0-1,0.1c-0.3,0.1-0.5,0.2-0.7,0.3l0.2-1.6h3.7c0.1,0,0.2,0,0.2-0.1c0.1-0.1,0.1-0.1,0.1-0.2v-1.3c0-0.1,0-0.2-0.1-0.2
		c-0.1-0.1-0.1-0.1-0.2-0.1h-5.1c-0.1,0-0.2,0-0.3,0.1C31,14.2,31,14.3,31,14.4l-0.5,4.4c0,0.1,0,0.1,0.1,0.2
		c0.1,0.1,0.1,0.1,0.2,0.1h1.8c0.1,0,0.2,0,0.3-0.2c0.1-0.1,0.2-0.2,0.4-0.2c0.1-0.1,0.3-0.1,0.5-0.1c0.4,0,0.7,0.1,0.9,0.3
		c0.2,0.2,0.4,0.5,0.4,0.9c0,0.4-0.1,0.7-0.4,0.9c-0.2,0.2-0.5,0.3-0.9,0.3c-0.3,0-0.5-0.1-0.7-0.2c-0.2-0.1-0.4-0.3-0.5-0.6
		c-0.1-0.2-0.2-0.2-0.4-0.2h-1.8c-0.1,0-0.1,0-0.2,0.1c-0.1,0-0.1,0.1-0.1,0.2c0,0.5,0.2,0.9,0.4,1.3s0.7,0.7,1.2,1
		C32.3,22.9,33,23,33.7,23 M25.6,16.5v2.8h-2L25.6,16.5z M25.9,22.9h1.6c0.1,0,0.2,0,0.2-0.1c0.1-0.1,0.1-0.1,0.1-0.2v-1.4H29
		c0.1,0,0.2,0,0.2-0.1s0.1-0.1,0.1-0.2v-1.3c0-0.1,0-0.2-0.1-0.2s-0.1-0.1-0.2-0.1h-1.1v-4.9c0-0.1,0-0.2-0.1-0.2
		c-0.1-0.1-0.1-0.1-0.2-0.1h-1.9c-0.2,0-0.3,0.1-0.5,0.2l-3.7,4.9c-0.1,0.1-0.1,0.3-0.1,0.4v1.3c0,0.1,0,0.2,0.1,0.2
		s0.1,0.1,0.2,0.1h3.9v1.4c0,0.1,0,0.2,0.1,0.2S25.8,22.9,25.9,22.9 M16.6,22.5h1.1c0.1,0,0.2,0,0.2-0.1c0.1-0.1,0.1-0.1,0.1-0.2
		v-2.3h2.2c0.1,0,0.2,0,0.2-0.1c0.1-0.1,0.1-0.1,0.1-0.2v-1c0-0.1,0-0.2-0.1-0.2c-0.1-0.1-0.1-0.1-0.2-0.1h-2.2V16
		c0-0.1,0-0.2-0.1-0.2c-0.1-0.1-0.1-0.1-0.2-0.1h-1.1c-0.1,0-0.2,0-0.2,0.1c-0.1,0.1-0.1,0.1-0.1,0.2v2.2h-2.2c-0.1,0-0.2,0-0.2,0.1
		c-0.1,0.1-0.1,0.1-0.1,0.2v1c0,0.1,0,0.2,0.1,0.2s0.1,0.1,0.2,0.1h2.2v2.3c0,0.1,0,0.2,0.1,0.2S16.6,22.5,16.6,22.5"/>
	<path class="st2" d="M56.6,9.4h-45V7.5c0-0.6,0.5-1,1.1-1h42.9c0.6,0,1.1,0.5,1.1,1L56.6,9.4L56.6,9.4z M56.6,27.2
		c0,0.6-0.5,1-1.1,1l-42.9,0c-0.6,0-1.1-0.5-1.1-1V10.1h45L56.6,27.2L56.6,27.2z M55.6,5.8H12.7c-1,0-1.8,0.8-1.8,1.8v19.7
		c0,1,0.8,1.8,1.8,1.8h42.9c1,0,1.8-0.8,1.8-1.8l0-19.7C57.3,6.6,56.5,5.8,55.6,5.8z"/>
</g>
</svg>
